<mxfile host="app.diagrams.net" modified="2022-03-24T21:59:36.559Z" agent="5.0 (Windows NT 10.0; Win64; x64) AppleWebKit/537.36 (KHTML, like Gecko) Chrome/99.0.4844.82 Safari/537.36" etag="X8MoX2CPuITgRvsiNw7h" version="17.2.1" type="github">
  <diagram id="VFMbhpqh--GHvr7e9BpA" name="Page-1">
    <mxGraphModel dx="1422" dy="794" grid="1" gridSize="10" guides="1" tooltips="1" connect="1" arrows="1" fold="1" page="1" pageScale="1" pageWidth="850" pageHeight="1100" math="0" shadow="0">
      <root>
        <mxCell id="0" />
        <mxCell id="1" parent="0" />
        <mxCell id="uhdKiz6P59i2u5TMS4pt-19" value="Window Title" style="strokeWidth=1;shadow=0;dashed=0;align=center;html=1;shape=mxgraph.mockup.containers.window;align=left;verticalAlign=top;spacingLeft=8;strokeColor2=#008cff;strokeColor3=#c4c4c4;fontColor=#666666;mainText=;fontSize=17;labelBackgroundColor=none;" parent="1" vertex="1">
          <mxGeometry x="160" y="40" width="1360" height="680" as="geometry" />
        </mxCell>
        <mxCell id="uhdKiz6P59i2u5TMS4pt-20" value="" style="rounded=1;whiteSpace=wrap;html=1;fontSize=24;" parent="1" vertex="1">
          <mxGeometry x="280" y="90" width="280" height="60" as="geometry" />
        </mxCell>
        <mxCell id="uhdKiz6P59i2u5TMS4pt-21" value="ORDER PIZZA HERE" style="text;html=1;strokeColor=none;fillColor=none;align=center;verticalAlign=middle;whiteSpace=wrap;rounded=0;fontSize=24;" parent="1" vertex="1">
          <mxGeometry x="300" y="100" width="240" height="40" as="geometry" />
        </mxCell>
        <mxCell id="uhdKiz6P59i2u5TMS4pt-22" value="" style="rounded=0;whiteSpace=wrap;html=1;fontSize=24;" parent="1" vertex="1">
          <mxGeometry x="170" y="230" width="140" height="40" as="geometry" />
        </mxCell>
        <mxCell id="uhdKiz6P59i2u5TMS4pt-23" value="&lt;font style=&quot;font-size: 18px&quot;&gt;Regular Pizza&lt;/font&gt;" style="text;html=1;strokeColor=none;fillColor=none;align=center;verticalAlign=middle;whiteSpace=wrap;rounded=0;fontSize=24;" parent="1" vertex="1">
          <mxGeometry x="170" y="235" width="140" height="30" as="geometry" />
        </mxCell>
        <mxCell id="uhdKiz6P59i2u5TMS4pt-24" value="" style="rounded=0;whiteSpace=wrap;html=1;fontSize=18;" parent="1" vertex="1">
          <mxGeometry x="530" y="230" width="140" height="40" as="geometry" />
        </mxCell>
        <mxCell id="uhdKiz6P59i2u5TMS4pt-25" value="Gourmet pizza" style="text;html=1;strokeColor=none;fillColor=none;align=center;verticalAlign=middle;whiteSpace=wrap;rounded=0;fontSize=18;" parent="1" vertex="1">
          <mxGeometry x="535" y="235" width="130" height="30" as="geometry" />
        </mxCell>
        <mxCell id="uhdKiz6P59i2u5TMS4pt-31" value="&lt;font style=&quot;font-size: 14px&quot;&gt;&lt;sub&gt;BEEF &amp;amp; ONION&lt;br&gt;MEAT LOVER&lt;br&gt;CHEESE PIZZA&lt;br&gt;BBQ CHICKEN&lt;br&gt;HAWAIIAN&amp;nbsp;&lt;br&gt;&amp;nbsp;&lt;/sub&gt;&lt;br&gt;&lt;/font&gt;" style="text;html=1;strokeColor=none;fillColor=none;align=center;verticalAlign=middle;whiteSpace=wrap;rounded=0;fontSize=18;" parent="1" vertex="1">
          <mxGeometry x="535" y="295" width="130" height="130" as="geometry" />
        </mxCell>
        <mxCell id="uhdKiz6P59i2u5TMS4pt-34" value="&lt;div&gt;&lt;span&gt;&lt;sub&gt;BUFFALO PIZZA&lt;/sub&gt;&lt;/span&gt;&lt;/div&gt;&lt;div&gt;&lt;span&gt;&lt;sub&gt;CLASSIC CHEESE&lt;/sub&gt;&lt;/span&gt;&lt;/div&gt;&lt;div&gt;&lt;span&gt;&lt;sub&gt;VEGGIE PIZZA&lt;/sub&gt;&lt;/span&gt;&lt;/div&gt;&lt;div&gt;&lt;span&gt;&lt;sub&gt;MARGHERITA&amp;nbsp;&lt;/sub&gt;&lt;/span&gt;&lt;/div&gt;&lt;div&gt;&lt;span&gt;&lt;sub&gt;BEEF SUPREME&lt;/sub&gt;&lt;/span&gt;&lt;/div&gt;&lt;div&gt;&lt;span&gt;&lt;sub&gt;BBQ BEEF&lt;/sub&gt;&lt;/span&gt;&lt;/div&gt;&lt;div&gt;&lt;span&gt;&lt;sub&gt;PEPPERONI&lt;/sub&gt;&lt;/span&gt;&lt;/div&gt;&lt;div&gt;&lt;span&gt;&lt;sub&gt;HORSEY BRO&amp;nbsp;&lt;/sub&gt;&lt;/span&gt;&lt;/div&gt;&lt;div&gt;&lt;span&gt;&lt;sub&gt;&amp;nbsp;&lt;/sub&gt;&lt;/span&gt;&lt;/div&gt;" style="text;html=1;strokeColor=none;fillColor=none;align=center;verticalAlign=middle;whiteSpace=wrap;rounded=0;fontSize=14;" parent="1" vertex="1">
          <mxGeometry x="180" y="320" width="130" height="110" as="geometry" />
        </mxCell>
        <mxCell id="eBNuIDFkfqs_jkBTaT5q-1" style="edgeStyle=orthogonalEdgeStyle;rounded=0;orthogonalLoop=1;jettySize=auto;html=1;exitX=0.5;exitY=1;exitDx=0;exitDy=0;" parent="1" source="uhdKiz6P59i2u5TMS4pt-34" target="uhdKiz6P59i2u5TMS4pt-34" edge="1">
          <mxGeometry relative="1" as="geometry" />
        </mxCell>
        <mxCell id="eBNuIDFkfqs_jkBTaT5q-2" value="" style="ellipse;whiteSpace=wrap;html=1;" parent="1" vertex="1">
          <mxGeometry x="200" y="165" width="90" height="40" as="geometry" />
        </mxCell>
        <mxCell id="eBNuIDFkfqs_jkBTaT5q-3" value="" style="ellipse;whiteSpace=wrap;html=1;" parent="1" vertex="1">
          <mxGeometry x="555" y="165" width="90" height="40" as="geometry" />
        </mxCell>
        <mxCell id="eBNuIDFkfqs_jkBTaT5q-4" value="$8.50" style="text;html=1;strokeColor=none;fillColor=none;align=center;verticalAlign=middle;whiteSpace=wrap;rounded=0;" parent="1" vertex="1">
          <mxGeometry x="215" y="170" width="60" height="30" as="geometry" />
        </mxCell>
        <mxCell id="eBNuIDFkfqs_jkBTaT5q-5" value="$13.50" style="text;html=1;strokeColor=none;fillColor=none;align=center;verticalAlign=middle;whiteSpace=wrap;rounded=0;" parent="1" vertex="1">
          <mxGeometry x="570" y="170" width="60" height="30" as="geometry" />
        </mxCell>
        <mxCell id="kHprLxy4Yat2x9M9BDJ9-1" value="&lt;font style=&quot;font-size: 12px&quot;&gt;CLASSIC CHEESE&lt;/font&gt;" style="strokeWidth=1;shadow=0;dashed=0;align=center;html=1;shape=mxgraph.mockup.forms.comboBox;strokeColor=#999999;fillColor=#ddeeff;align=left;fillColor2=#aaddff;mainText=;fontColor=#666666;fontSize=17;spacingLeft=3;" parent="1" vertex="1">
          <mxGeometry x="275" y="510" width="145" height="30" as="geometry" />
        </mxCell>
        <mxCell id="kHprLxy4Yat2x9M9BDJ9-2" value="&lt;font style=&quot;font-size: 12px&quot;&gt;SELECT A PIZZA&amp;nbsp;&lt;/font&gt;" style="strokeWidth=1;shadow=0;dashed=0;align=center;html=1;shape=mxgraph.mockup.forms.comboBox;strokeColor=#999999;fillColor=#ddeeff;align=left;fillColor2=#aaddff;mainText=;fontColor=#666666;fontSize=17;spacingLeft=3;" parent="1" vertex="1">
          <mxGeometry x="275" y="670" width="145" height="30" as="geometry" />
        </mxCell>
        <mxCell id="xRoxg_uO_SgBYoUK2iEH-1" value="&lt;font style=&quot;font-size: 12px&quot;&gt;MEAT PIZZA&lt;/font&gt;" style="strokeWidth=1;shadow=0;dashed=0;align=center;html=1;shape=mxgraph.mockup.forms.comboBox;strokeColor=#999999;fillColor=#ddeeff;align=left;fillColor2=#aaddff;mainText=;fontColor=#666666;fontSize=17;spacingLeft=3;" vertex="1" parent="1">
          <mxGeometry x="275" y="590" width="145" height="30" as="geometry" />
        </mxCell>
        <mxCell id="xRoxg_uO_SgBYoUK2iEH-2" value="&lt;font style=&quot;font-size: 12px&quot;&gt;HORSEY BRO&lt;/font&gt;" style="strokeWidth=1;shadow=0;dashed=0;align=center;html=1;shape=mxgraph.mockup.forms.comboBox;strokeColor=#999999;fillColor=#ddeeff;align=left;fillColor2=#aaddff;mainText=;fontColor=#666666;fontSize=17;spacingLeft=3;" vertex="1" parent="1">
          <mxGeometry x="275" y="630" width="145" height="30" as="geometry" />
        </mxCell>
        <mxCell id="xRoxg_uO_SgBYoUK2iEH-3" value="&lt;font style=&quot;font-size: 12px&quot;&gt;BBQ CHICKEN&lt;/font&gt;" style="strokeWidth=1;shadow=0;dashed=0;align=center;html=1;shape=mxgraph.mockup.forms.comboBox;strokeColor=#999999;fillColor=#ddeeff;align=left;fillColor2=#aaddff;mainText=;fontColor=#666666;fontSize=17;spacingLeft=3;" vertex="1" parent="1">
          <mxGeometry x="275" y="550" width="145" height="30" as="geometry" />
        </mxCell>
        <mxCell id="xRoxg_uO_SgBYoUK2iEH-4" value="$8.50" style="text;html=1;strokeColor=none;fillColor=none;align=center;verticalAlign=middle;whiteSpace=wrap;rounded=0;fontSize=12;" vertex="1" parent="1">
          <mxGeometry x="480" y="510" width="60" height="30" as="geometry" />
        </mxCell>
        <mxCell id="xRoxg_uO_SgBYoUK2iEH-5" value="$0.00" style="text;html=1;strokeColor=none;fillColor=none;align=center;verticalAlign=middle;whiteSpace=wrap;rounded=0;fontSize=12;" vertex="1" parent="1">
          <mxGeometry x="480" y="670" width="60" height="30" as="geometry" />
        </mxCell>
        <mxCell id="xRoxg_uO_SgBYoUK2iEH-6" value="$8.50" style="text;html=1;strokeColor=none;fillColor=none;align=center;verticalAlign=middle;whiteSpace=wrap;rounded=0;fontSize=12;" vertex="1" parent="1">
          <mxGeometry x="480" y="630" width="60" height="30" as="geometry" />
        </mxCell>
        <mxCell id="xRoxg_uO_SgBYoUK2iEH-7" value="$13.50" style="text;html=1;strokeColor=none;fillColor=none;align=center;verticalAlign=middle;whiteSpace=wrap;rounded=0;fontSize=12;" vertex="1" parent="1">
          <mxGeometry x="480" y="590" width="60" height="30" as="geometry" />
        </mxCell>
        <mxCell id="xRoxg_uO_SgBYoUK2iEH-8" value="$13.50" style="text;html=1;strokeColor=none;fillColor=none;align=center;verticalAlign=middle;whiteSpace=wrap;rounded=0;fontSize=12;" vertex="1" parent="1">
          <mxGeometry x="480" y="550" width="60" height="30" as="geometry" />
        </mxCell>
        <mxCell id="xRoxg_uO_SgBYoUK2iEH-11" value="" style="endArrow=none;dashed=1;html=1;rounded=0;fontSize=12;" edge="1" parent="1" source="uhdKiz6P59i2u5TMS4pt-19" target="uhdKiz6P59i2u5TMS4pt-19">
          <mxGeometry width="50" height="50" relative="1" as="geometry">
            <mxPoint x="810" y="430" as="sourcePoint" />
            <mxPoint x="860" y="380" as="targetPoint" />
            <Array as="points">
              <mxPoint x="840" y="430" />
            </Array>
          </mxGeometry>
        </mxCell>
        <mxCell id="xRoxg_uO_SgBYoUK2iEH-12" value="" style="endArrow=none;html=1;rounded=0;fontSize=12;" edge="1" parent="1" source="uhdKiz6P59i2u5TMS4pt-19" target="uhdKiz6P59i2u5TMS4pt-19">
          <mxGeometry width="50" height="50" relative="1" as="geometry">
            <mxPoint x="839.5" y="330" as="sourcePoint" />
            <mxPoint x="839.5" y="330" as="targetPoint" />
            <Array as="points">
              <mxPoint x="839.5" y="670" />
            </Array>
          </mxGeometry>
        </mxCell>
        <mxCell id="xRoxg_uO_SgBYoUK2iEH-13" value="" style="rounded=0;whiteSpace=wrap;html=1;fontSize=12;" vertex="1" parent="1">
          <mxGeometry x="700" y="70" width="10" height="650" as="geometry" />
        </mxCell>
        <mxCell id="xRoxg_uO_SgBYoUK2iEH-14" value="" style="rounded=0;whiteSpace=wrap;html=1;fontSize=12;" vertex="1" parent="1">
          <mxGeometry x="710" y="290" width="810" height="10" as="geometry" />
        </mxCell>
        <mxCell id="xRoxg_uO_SgBYoUK2iEH-15" value="" style="rounded=0;whiteSpace=wrap;html=1;fontSize=12;" vertex="1" parent="1">
          <mxGeometry x="710" y="520" width="810" height="10" as="geometry" />
        </mxCell>
        <mxCell id="xRoxg_uO_SgBYoUK2iEH-16" value="PIZZA ORDERING SYSTEM&amp;nbsp;" style="text;html=1;strokeColor=none;fillColor=none;align=center;verticalAlign=middle;whiteSpace=wrap;rounded=0;fontSize=12;" vertex="1" parent="1">
          <mxGeometry x="1052.5" y="105" width="125" height="30" as="geometry" />
        </mxCell>
        <mxCell id="xRoxg_uO_SgBYoUK2iEH-17" value="Pick Up" style="shape=ellipse;fillColor=#eeeeee;strokeColor=#999999;gradientColor=#cccccc;html=1;align=left;spacingLeft=4;fontSize=17;fontColor=#666666;labelPosition=right;shadow=0;" vertex="1" parent="1">
          <mxGeometry x="1070" y="205" width="15" height="15" as="geometry" />
        </mxCell>
        <mxCell id="xRoxg_uO_SgBYoUK2iEH-18" value="Delivery" style="shape=ellipse;fillColor=#eeeeee;strokeColor=#999999;gradientColor=#cccccc;html=1;align=left;spacingLeft=4;fontSize=17;fontColor=#666666;labelPosition=right;shadow=0;" vertex="1" parent="1">
          <mxGeometry x="1070" y="165" width="15" height="15" as="geometry" />
        </mxCell>
        <mxCell id="xRoxg_uO_SgBYoUK2iEH-21" value="PIZZA ORDERING SYSTEM" style="text;html=1;strokeColor=none;fillColor=none;align=center;verticalAlign=middle;whiteSpace=wrap;rounded=0;fontSize=12;" vertex="1" parent="1">
          <mxGeometry x="1047.5" y="310" width="135" height="30" as="geometry" />
        </mxCell>
      </root>
    </mxGraphModel>
  </diagram>
</mxfile>
